<svg xmlns="http://www.w3.org/2000/svg"  viewBox="0 0 100 100" width="100px" height="100px" baseProfile="basic"><path fill="#444445" d="M83.5,30.5v39c0,7.72-6.28,14-14,14h-39c-7.72,0-14-6.28-14-14v-39c0-7.72,6.28-14,14-14h39 C77.22,16.5,83.5,22.78,83.5,30.5z"/><path fill="#31c4f3" d="M56.26,64.999H40.9h-1.92H34.5v3.667c0,1.013,0.895,1.834,2,1.834h30v-5.501h-4.48H56.26z"/><polygon fill="#f8e55b" points="35.017,29.052 35.017,34.021 40.658,34.021 46.153,34.021 48.352,34.021 52.198,29.052"/><polygon fill="#ceb743" points="51.5,29.5 50.934,29.5 46.406,34.028 51.5,33.462"/><path fill="#f15b6c" d="M61.5,38.5v-4h-4c-0.552,0-1-0.448-1-1v-4l-5-1v13.991c0,0.556,0.453,1.005,1.009,1L67.5,43.5v-4h-5 C61.948,39.5,61.5,39.052,61.5,38.5z"/><rect width="5" height="21" x="61.5" y="43.5" fill="#787ab5"/><rect width="4.584" height="31.031" x="35.349" y="34.021" fill="#8cc78c"/><polygon fill="#565fa0" points="62.5,44.5 62.5,48.5 66.5,44.5"/><path fill="#1d1d1b" d="M67,70.5H35c-0.276,0-0.5-0.224-0.5-0.5V29c0-0.276,0.224-0.5,0.5-0.5h22c0.276,0,0.5,0.224,0.5,0.5 v4.5H62c0.276,0,0.5,0.224,0.5,0.5v4.5H67c0.276,0,0.5,0.224,0.5,0.5v31C67.5,70.276,67.276,70.5,67,70.5z M35.5,69.5h31v-30H62 c-0.276,0-0.5-0.224-0.5-0.5v-4.5H57c-0.276,0-0.5-0.224-0.5-0.5v-4.5h-21V69.5z M62,65.5H40c-0.276,0-0.5-0.224-0.5-0.5V34 c0-0.27,0.213-0.49,0.483-0.5c0.689-0.022,11.556-0.001,12.018,0c0.276,0.001,0.499,0.225,0.499,0.5v9.5H62 c0.276,0,0.5,0.224,0.5,0.5v21C62.5,65.276,62.276,65.5,62,65.5z M40.5,64.5h21v-20H52c-0.276,0-0.5-0.224-0.5-0.5v-9.501 c-1.949-0.005-9.027-0.017-11-0.005V64.5z"/><path fill="#1d1d1b" d="M52,35.5c-0.276,0-0.5-0.224-0.5-0.5v-6c0-0.276,0.224-0.5,0.5-0.5s0.5,0.224,0.5,0.5v6 C52.5,35.276,52.276,35.5,52,35.5z"/><path fill="#1d1d1b" d="M67,65.5h-7c-0.276,0-0.5-0.224-0.5-0.5s0.224-0.5,0.5-0.5h7c0.276,0,0.5,0.224,0.5,0.5 S67.276,65.5,67,65.5z"/><path fill="#1d1d1b" d="M37,34.5h-2c-0.276,0-0.5-0.224-0.5-0.5s0.224-0.5,0.5-0.5h2c0.276,0,0.5,0.224,0.5,0.5 S37.276,34.5,37,34.5z"/><path fill="#1d1d1b" d="M41,34.5h-2c-0.276,0-0.5-0.224-0.5-0.5s0.224-0.5,0.5-0.5h2c0.276,0,0.5,0.224,0.5,0.5 S41.276,34.5,41,34.5z"/><path fill="#1d1d1b" d="M37,65.5h-2c-0.276,0-0.5-0.224-0.5-0.5s0.224-0.5,0.5-0.5h2c0.276,0,0.5,0.224,0.5,0.5 S37.276,65.5,37,65.5z"/><path fill="#1d1d1b" d="M41,65.5h-2c-0.276,0-0.5-0.224-0.5-0.5s0.224-0.5,0.5-0.5h2c0.276,0,0.5,0.224,0.5,0.5 S41.276,65.5,41,65.5z"/><path fill="#1d1d1b" d="M46,34.5c-0.128,0-0.256-0.049-0.354-0.146c-0.195-0.195-0.195-0.512,0-0.707l5-5 c0.195-0.195,0.512-0.195,0.707,0s0.195,0.512,0,0.707l-5,5C46.256,34.451,46.128,34.5,46,34.5z"/><path fill="#1d1d1b" d="M67,44.5h-6c-0.276,0-0.5-0.224-0.5-0.5s0.224-0.5,0.5-0.5h6c0.276,0,0.5,0.224,0.5,0.5 S67.276,44.5,67,44.5z"/><path fill="#1d1d1b" d="M62,49.5c-0.128,0-0.256-0.049-0.354-0.146c-0.195-0.195-0.195-0.512,0-0.707l5-5 c0.195-0.195,0.512-0.195,0.707,0s0.195,0.512,0,0.707l-5,5C62.256,49.451,62.128,49.5,62,49.5z"/><path fill="#1f212b" d="M69.5,83.5h-39c-7.72,0-14-6.28-14-14v-39c0-7.72,6.28-14,14-14h39c7.72,0,14,6.28,14,14v39 C83.5,77.22,77.22,83.5,69.5,83.5z M30.5,18.5c-6.617,0-12,5.383-12,12v39c0,6.617,5.383,12,12,12h39c6.617,0,12-5.383,12-12v-39 c0-6.617-5.383-12-12-12H30.5z"/><path fill="#1f212b" d="M76.742,47.219c-0.276,0-0.5,0.224-0.5,0.5v18.663c0,5.424-4.413,9.837-9.837,9.837H33.078 c-5.424,0-9.837-4.413-9.837-9.837V33.056c0-5.424,4.413-9.837,9.837-9.837h33.663c0.276,0,0.5-0.224,0.5-0.5s-0.224-0.5-0.5-0.5 H33.078c-5.976,0-10.837,4.861-10.837,10.837v33.326c0,5.976,4.861,10.837,10.837,10.837h33.326 c5.976,0,10.837-4.861,10.837-10.837V47.719C77.242,47.443,77.018,47.219,76.742,47.219z M76.742,40.219 c-0.276,0-0.5,0.224-0.5,0.5v4c0,0.276,0.224,0.5,0.5,0.5s0.5-0.224,0.5-0.5v-4C77.242,40.443,77.018,40.219,76.742,40.219z M76.242,36.719v2c0,0.276,0.224,0.5,0.5,0.5s0.5-0.224,0.5-0.5v-2c0-0.276-0.224-0.5-0.5-0.5S76.242,36.443,76.242,36.719z"/></svg>